<svg width="175" height="30" viewBox="0 0 175 30" fill="none" xmlns="http://www.w3.org/2000/svg">
<path d="M37.6611 2.2002V8.19823H7.66113V2.2002H37.6611Z" fill="black"/>
<path d="M37.6611 19.2002V25.1982H7.66113V19.2002H37.6611Z" fill="black"/>
<path d="M22.666 13.2002V16.7002H7.66113V13.2002H22.666Z" fill="black"/>
<path d="M37.666 10.2002V13.7002H22.6611V10.2002H37.666Z" fill="black"/>
<path d="M131.809 17.6406C131.809 18.6904 132.079 19.4805 132.599 19.9805C133.119 20.4704 133.859 20.7197 134.789 20.7197C135.819 20.7197 136.659 20.3804 137.279 19.6904C137.919 19.0004 138.239 17.9799 138.239 16.6699V10.3701H140.909V25.2705C140.909 26.0404 140.679 26.6504 140.219 27.1104C139.779 27.5703 139.169 27.7998 138.389 27.7998H130.688V25.4502H137.608C138.048 25.4502 138.259 25.22 138.259 24.75V21H137.938C137.779 21.3299 137.549 21.6501 137.239 21.96C136.939 22.2599 136.519 22.5197 135.999 22.7197C135.479 22.9197 134.819 23.0205 134.029 23.0205C133.099 23.0205 132.249 22.8106 131.509 22.3906C130.769 21.9707 130.189 21.3705 129.769 20.6006C129.349 19.8307 129.139 18.9004 129.139 17.8506V10.3701H131.809V17.6406ZM76.541 10.0205C78.151 10.0205 79.4316 10.4398 80.3516 11.2598C81.2715 12.0798 81.7412 13.2605 81.7412 14.7705V19.8506H81.7314C81.7316 20.3202 81.9412 20.5497 82.3809 20.5498H83.4814V22.7998H81.5107C80.9109 22.7997 80.4207 22.6498 80.0508 22.3398C79.671 22.0299 79.4814 21.6099 79.4814 21.0801V21.0498H79.1807C79.0507 21.2998 78.8508 21.5902 78.5908 21.9102C78.3209 22.25 77.9211 22.5499 77.4014 22.7998C76.8814 23.0298 76.2111 23.1504 75.3311 23.1504C74.4512 23.1504 73.6413 23.0001 72.9414 22.7002C72.2515 22.4002 71.6915 21.9502 71.2715 21.3604C70.8615 20.7704 70.6611 20.07 70.6611 19.21C70.6612 18.3501 70.8715 17.64 71.2715 17.0801C71.6914 16.5103 72.261 16.08 72.9707 15.79C73.6907 15.5 74.5111 15.3604 75.4111 15.3604H79.1113V14.6104C79.1113 13.9104 78.8907 13.3399 78.4707 12.9199C78.0507 12.4902 77.3805 12.2803 76.5107 12.2803C75.6409 12.2803 74.9814 12.4807 74.5215 12.8906C74.0715 13.3006 73.7616 13.8403 73.6016 14.4902V14.54L73.5508 14.5205L71.1211 13.7305V13.6807C71.3211 13.0107 71.6411 12.4003 72.0811 11.8604C72.531 11.3004 73.1312 10.8505 73.8711 10.5205C74.6111 10.1905 75.5011 10.0205 76.541 10.0205ZM114.541 10.0205C116.151 10.0205 117.432 10.4398 118.352 11.2598C119.272 12.0798 119.741 13.2605 119.741 14.7705V19.8506H119.731C119.732 20.3202 119.941 20.5497 120.381 20.5498H121.481V22.7998H119.511C118.911 22.7997 118.421 22.6498 118.051 22.3398C117.671 22.0399 117.481 21.6099 117.481 21.0801V21.0498H117.181C117.051 21.2998 116.851 21.5902 116.591 21.9102C116.321 22.25 115.921 22.5499 115.401 22.7998C114.881 23.0298 114.211 23.1504 113.331 23.1504C112.451 23.1504 111.641 23.0001 110.941 22.7002C110.252 22.4002 109.691 21.9502 109.271 21.3604C108.861 20.7704 108.661 20.07 108.661 19.21C108.661 18.3501 108.872 17.64 109.271 17.0801C109.691 16.5103 110.261 16.08 110.971 15.79C111.681 15.5 112.511 15.3604 113.411 15.3604H117.111V14.6104C117.111 13.9104 116.891 13.3399 116.471 12.9199C116.051 12.4902 115.371 12.2803 114.511 12.2803C113.651 12.2803 112.981 12.4807 112.521 12.8906C112.062 13.3006 111.762 13.8403 111.602 14.4902V14.54L109.121 13.7305V13.6807C109.321 13.0107 109.641 12.4003 110.081 11.8604C110.531 11.3004 111.131 10.8505 111.871 10.5205C112.611 10.1905 113.501 10.0205 114.541 10.0205ZM91.0312 10C92.2212 10 93.2411 10.2202 94.0811 10.6602C94.9211 11.0902 95.6016 11.6804 96.1016 12.4004C96.6214 13.1202 96.9613 13.9301 97.1113 14.7998V14.8604H97.0615L94.501 15.4004V15.3506C94.421 14.8106 94.2414 14.3101 93.9814 13.8701C93.7215 13.4302 93.341 13.0705 92.8711 12.8105C92.4011 12.5506 91.7812 12.4199 91.0713 12.4199C90.3614 12.4199 89.7115 12.5803 89.1416 12.9102C88.5817 13.2201 88.1415 13.6902 87.8115 14.29C87.4916 14.8799 87.3213 15.6199 87.3213 16.4697V16.7002C87.3213 17.5502 87.4815 18.2904 87.8115 18.9004C88.1415 19.5002 88.5817 19.9703 89.1416 20.2803C89.7215 20.5901 90.3615 20.75 91.0713 20.75C92.131 20.75 92.9608 20.4802 93.5107 19.9404C94.0707 19.3905 94.4213 18.6703 94.5713 17.8203L94.5908 17.79V17.7402L97.1807 18.3398V18.3906C96.9807 19.2402 96.6213 20.04 96.1016 20.7598C95.6016 21.4798 94.921 22.06 94.0811 22.5C93.2411 22.92 92.2212 23.1299 91.0312 23.1299C89.8413 23.1299 88.7512 22.8701 87.7812 22.3701C86.8314 21.8702 86.0612 21.1305 85.4912 20.1807C84.9413 19.2307 84.6612 18.0703 84.6611 16.7305V16.4004C84.6611 15.0604 84.9412 13.9097 85.4912 12.9697C86.0512 12.0199 86.8314 11.2802 87.7812 10.7803C88.7512 10.2603 89.8413 10 91.0312 10ZM161.339 10.0205C162.519 10.0205 163.569 10.2901 164.459 10.8301C165.359 11.3401 166.079 12.0805 166.579 13.0205C167.089 13.9604 167.339 15.0705 167.339 16.3203H167.318V17.3398H157.849C157.899 18.3798 158.249 19.2206 158.909 19.8506C159.599 20.4703 160.469 20.79 161.479 20.79C162.429 20.79 163.149 20.5704 163.619 20.1504C164.119 19.7304 164.499 19.2299 164.759 18.6699L164.779 18.6201L164.829 18.6406L166.999 19.7598L166.979 19.7998C166.749 20.2697 166.399 20.7701 165.949 21.29C165.519 21.81 164.929 22.2506 164.209 22.6006C163.489 22.9506 162.558 23.1299 161.438 23.1299C160.189 23.1298 159.079 22.8705 158.139 22.3506C157.199 21.8206 156.459 21.0603 155.919 20.1104C155.399 19.1404 155.139 18.0102 155.139 16.7402V16.4404C155.139 15.1604 155.399 14.0203 155.919 13.0703C156.439 12.1003 157.169 11.3501 158.089 10.8301C159.029 10.2901 160.159 10.0205 161.339 10.0205ZM60.5615 5.2002V7.75H52.4609V12.7002H59.9111V15.25H52.4609V22.7998H49.6611V5.2002H60.5615ZM69.751 12.75H68.1309C67.311 12.7501 66.6313 12.9805 66.1113 13.4404C65.5914 13.8804 65.3311 14.5701 65.3311 15.5V22.7998H62.6611V10.3799H65.2812V11.8301H65.6016C65.8016 11.3202 66.1316 10.9399 66.5615 10.71C67.0115 10.4601 67.5716 10.3301 68.2314 10.3301H69.751V12.75ZM126.331 22.7998H123.661V5.2002H126.331V22.7998ZM153.318 13.6201L146.019 20.2705V20.5303H153.519V22.7998H143.139V19.5801L143.159 19.5605L150.419 12.9307V12.6504H143.389V10.3701H153.318V13.6201ZM103.741 10.3701H107.411V12.6406H103.741V19.8203C103.741 20.2902 103.952 20.5205 104.392 20.5205H107.011V22.79H103.562C102.802 22.79 102.181 22.5606 101.721 22.1006C101.281 21.6406 101.062 21.0198 101.062 20.2598V12.6406H97.6611V10.3701H101.062V6.2998H103.741V10.3701ZM75.5615 17.4502C74.8915 17.4502 74.3514 17.6006 73.9414 17.8906C73.5414 18.1606 73.3408 18.5702 73.3408 19.1201C73.3408 19.6701 73.5507 20.1107 73.9707 20.4307C74.4006 20.7506 74.9909 20.9199 75.7207 20.9199C76.7407 20.9199 77.5714 20.6305 78.1914 20.0605C78.8114 19.4806 79.1211 18.6603 79.1211 17.6504V17.4502H75.5615ZM113.551 17.4502C112.881 17.4502 112.341 17.6007 111.931 17.8906C111.531 18.1606 111.331 18.5704 111.331 19.1201C111.331 19.6701 111.541 20.1107 111.961 20.4307C112.391 20.7506 112.981 20.9199 113.711 20.9199C114.731 20.9199 115.561 20.6303 116.181 20.0605C116.801 19.4806 117.111 18.6603 117.111 17.6504V17.4502H113.551ZM161.309 12.4004C160.359 12.4004 159.579 12.6705 158.969 13.1904C158.399 13.6904 158.038 14.3904 157.898 15.2803H164.608C164.528 14.3903 164.209 13.6904 163.629 13.1904C163.039 12.6704 162.259 12.4004 161.309 12.4004Z" fill="black"/>
</svg>
