<svg width="172" height="42" viewBox="0 0 172 42" fill="none" xmlns="http://www.w3.org/2000/svg">
<path d="M129.206 25.4108H129.365L132.715 14.5202H136.305L130.509 30.6979C129.684 33.0085 128.168 34.3628 125.457 34.3629C124.793 34.3629 124.127 34.3369 123.702 34.2838V31.5739C124.127 31.6004 124.686 31.6276 125.138 31.6276C125.962 31.6276 126.653 31.5468 127.238 30.0065L127.53 29.236L122.267 14.5202H125.855L129.206 25.4108ZM20.122 19.8776H33.2821L19.6689 33.4782V20.3219L7.64444 32.1178V7.63636H32.6015L20.122 19.8776ZM70.5634 14.3336C73.3018 14.3337 76.4655 15.4499 76.4657 19.3014V28.944H73.2226V26.9518H73.1161C72.478 28.1735 71.1217 29.2358 68.8622 29.236C66.0974 29.2358 64.0235 27.7216 64.0233 24.8795C64.0237 21.6394 66.7085 20.6826 69.3935 20.5231C70.3904 20.4567 72.4645 20.3378 73.0898 20.3112V19.1686C73.0896 17.7345 72.1588 16.911 70.4843 16.9108C68.9692 16.9109 68.0374 17.6016 67.7714 18.6373H64.5019C64.7413 16.1937 66.948 14.3338 70.5634 14.3336ZM85.413 14.3336C88.9222 14.3337 91.3687 16.3793 91.6083 19.4869H88.3642C88.0981 18.1061 87.0882 17.0438 85.4403 17.0436C83.3403 17.0438 81.9308 18.8234 81.9306 21.7184C81.9306 24.6933 83.3136 26.4731 85.4403 26.4733C86.9554 26.4731 88.0716 25.5967 88.3642 24.0299H91.6083C91.3423 27.0845 89.0287 29.2359 85.413 29.236C81.1064 29.2356 78.501 26.1546 78.5009 21.7985C78.501 17.3892 81.1861 14.334 85.413 14.3336ZM108.759 14.3336C111.497 14.3337 114.661 15.4501 114.661 19.3014V28.944H111.417V26.9518H111.31C110.672 28.1735 109.316 29.2359 107.057 29.236C104.292 29.2357 102.218 27.7215 102.218 24.8795C102.218 21.6393 104.904 20.6825 107.589 20.5231C108.586 20.4567 110.659 20.3378 111.284 20.3112V19.1686C111.284 17.7344 110.353 16.9108 108.679 16.9108C107.164 16.9109 106.233 17.6016 105.967 18.6373H102.696C102.936 16.1937 105.143 14.3338 108.759 14.3336ZM157.762 14.3336C161.298 14.3337 164.355 16.5388 164.355 21.6119V22.6754H154.279C154.319 25.1321 155.768 26.5796 157.975 26.5797C159.463 26.5797 160.474 25.9423 160.899 25.0924H164.223C163.611 27.5891 161.298 29.2358 157.948 29.236C153.588 29.2358 150.929 26.3405 150.929 21.8248C150.929 17.3625 153.641 14.3339 157.762 14.3336ZM97.9765 14.5202H100.821V17.1237H97.9765V24.6149C97.9767 25.9954 98.668 26.2876 99.5185 26.2877C99.9172 26.2877 100.582 26.2615 101.008 26.235V28.9977C100.609 29.0773 99.9439 29.1305 99.0937 29.1305C96.5415 29.1304 94.5731 27.8817 94.5995 25.1725V17.1237H92.5263V14.5202H94.5995V11.067H97.9765V14.5202ZM53.2274 12.6071H44.3476V17.8668H52.3769V20.7623H44.3476V28.944H40.8905V9.71156H53.2274V12.6071ZM62.2548 14.3073C62.6269 14.3073 63.1585 14.3333 63.4774 14.3864V17.5211C63.1849 17.4149 62.4672 17.3093 61.9091 17.3092C60.0218 17.3094 58.6389 18.6106 58.6386 20.443V28.944H55.2353V14.5192H58.5321V16.9108H58.6913C59.1965 15.2641 60.6066 14.3074 62.2548 14.3073ZM120.71 28.944H117.307V9.71156H120.71V28.944ZM149.293 16.8307L142.194 26.0221V26.1549H149.559V28.944H137.701V26.7926L145.145 17.442V17.3092H137.94V14.5202H149.293V16.8307ZM69.9257 22.7809C68.3042 22.9138 67.2931 23.5785 67.2929 24.8532C67.293 26.1014 68.3038 26.7387 69.7392 26.7389C71.7861 26.7388 73.1159 25.3845 73.1161 23.7643V22.569L69.9257 22.7809ZM108.12 22.7809C106.499 22.9138 105.488 23.5785 105.488 24.8532C105.488 26.1014 106.499 26.7388 107.934 26.7389C109.981 26.7387 111.31 25.3844 111.31 23.7643V22.569L108.12 22.7809ZM157.815 16.9635C155.768 16.9637 154.412 18.5179 154.306 20.3639H161.112C161.085 18.3985 159.782 16.9638 157.815 16.9635Z" fill="black"/>
</svg>
