<svg width="130" height="27" viewBox="0 0 130 27" fill="none" xmlns="http://www.w3.org/2000/svg">
<path d="M88.3086 14.6406C88.3087 15.6904 88.5787 16.4805 89.0986 16.9805C89.6186 17.4704 90.3591 17.7197 91.2891 17.7197C92.319 17.7197 93.1593 17.3804 93.7793 16.6904C94.4192 16.0004 94.7393 14.9799 94.7393 13.6699V7.37012H97.4092V22.2705C97.4091 23.0404 97.1787 23.6504 96.7188 24.1104C96.2788 24.5703 95.6686 24.7998 94.8887 24.7998H87.1885V22.4502H94.1084C94.5484 22.4502 94.7588 22.22 94.7588 21.75V18H94.4385C94.2785 18.3299 94.0491 18.6501 93.7393 18.96C93.4393 19.2599 93.0189 19.5197 92.499 19.7197C91.9791 19.9197 91.3191 20.0205 90.5293 20.0205C89.5994 20.0205 88.7488 19.8106 88.0088 19.3906C87.2689 18.9707 86.6885 18.3705 86.2686 17.6006C85.8486 16.8307 85.6387 15.9004 85.6387 14.8506V7.37012H88.3086V14.6406ZM33.041 7.02051C34.651 7.02051 35.9316 7.43977 36.8516 8.25977C37.7715 9.07976 38.2412 10.2605 38.2412 11.7705V16.8506H38.2314C38.2316 17.3202 38.4412 17.5497 38.8809 17.5498H39.9814V19.7998H38.0107C37.4109 19.7997 36.9207 19.6498 36.5508 19.3398C36.171 19.0299 35.9814 18.6099 35.9814 18.0801V18.0498H35.6807C35.5507 18.2998 35.3508 18.5902 35.0908 18.9102C34.8209 19.25 34.4211 19.5499 33.9014 19.7998C33.3814 20.0298 32.7111 20.1504 31.8311 20.1504C30.9512 20.1504 30.1413 20.0001 29.4414 19.7002C28.7515 19.4002 28.1915 18.9502 27.7715 18.3604C27.3615 17.7704 27.1611 17.07 27.1611 16.21C27.1612 15.3501 27.3715 14.64 27.7715 14.0801C28.1914 13.5103 28.761 13.08 29.4707 12.79C30.1907 12.5 31.0111 12.3604 31.9111 12.3604H35.6113V11.6104C35.6113 10.9104 35.3907 10.3399 34.9707 9.91992C34.5507 9.49016 33.8805 9.28027 33.0107 9.28027C32.1409 9.28033 31.4814 9.48069 31.0215 9.89062C30.5715 10.3006 30.2616 10.8403 30.1016 11.4902V11.54L30.0508 11.5205L27.6211 10.7305V10.6807C27.8211 10.0107 28.1411 9.40032 28.5811 8.86035C29.031 8.30039 29.6312 7.8505 30.3711 7.52051C31.1111 7.19052 32.0011 7.02052 33.041 7.02051ZM71.041 7.02051C72.651 7.02051 73.9316 7.43977 74.8516 8.25977C75.7715 9.07976 76.2412 10.2605 76.2412 11.7705V16.8506H76.2314C76.2316 17.3202 76.4412 17.5497 76.8809 17.5498H77.9814V19.7998H76.0107C75.4109 19.7997 74.9207 19.6498 74.5508 19.3398C74.171 19.0399 73.9814 18.6099 73.9814 18.0801V18.0498H73.6807C73.5507 18.2998 73.3508 18.5902 73.0908 18.9102C72.8209 19.25 72.4211 19.5499 71.9014 19.7998C71.3814 20.0298 70.7111 20.1504 69.8311 20.1504C68.9512 20.1504 68.1413 20.0001 67.4414 19.7002C66.7515 19.4002 66.1915 18.9502 65.7715 18.3604C65.3615 17.7704 65.1611 17.07 65.1611 16.21C65.1612 15.3501 65.3715 14.64 65.7715 14.0801C66.1914 13.5103 66.761 13.08 67.4707 12.79C68.1807 12.5 69.0111 12.3604 69.9111 12.3604H73.6113V11.6104C73.6113 10.9104 73.3907 10.3399 72.9707 9.91992C72.5507 9.49017 71.8705 9.28027 71.0107 9.28027C70.1509 9.28033 69.4814 9.48069 69.0215 9.89062C68.5615 10.3006 68.2616 10.8403 68.1016 11.4902V11.54L65.6211 10.7305V10.6807C65.8211 10.0107 66.1411 9.40032 66.5811 8.86035C67.031 8.30039 67.6312 7.8505 68.3711 7.52051C69.1111 7.19052 70.0011 7.02052 71.041 7.02051ZM47.5312 7C48.7212 7.00001 49.7411 7.2202 50.5811 7.66016C51.4211 8.09016 52.1016 8.68039 52.6016 9.40039C53.1214 10.1202 53.4613 10.9301 53.6113 11.7998V11.8604H53.5615L51.001 12.4004V12.3506C50.921 11.8106 50.7414 11.3101 50.4814 10.8701C50.2215 10.4302 49.841 10.0705 49.3711 9.81055C48.9011 9.55057 48.2812 9.41994 47.5713 9.41992C46.8614 9.41992 46.2115 9.5803 45.6416 9.91016C45.0817 10.2201 44.6415 10.6902 44.3115 11.29C43.9916 11.8799 43.8213 12.6199 43.8213 13.4697V13.7002C43.8213 14.5502 43.9815 15.2904 44.3115 15.9004C44.6415 16.5002 45.0817 16.9703 45.6416 17.2803C46.2215 17.5901 46.8615 17.75 47.5713 17.75C48.631 17.75 49.4608 17.4802 50.0107 16.9404C50.5707 16.3905 50.9213 15.6703 51.0713 14.8203L51.0908 14.79V14.7402L53.6807 15.3398V15.3906C53.4807 16.2402 53.1213 17.04 52.6016 17.7598C52.1016 18.4798 51.421 19.06 50.5811 19.5C49.7411 19.92 48.7212 20.1299 47.5312 20.1299C46.3413 20.1299 45.2512 19.8701 44.2812 19.3701C43.3314 18.8702 42.5612 18.1305 41.9912 17.1807C41.4413 16.2307 41.1612 15.0703 41.1611 13.7305V13.4004C41.1611 12.0604 41.4412 10.9097 41.9912 9.96973C42.5512 9.01991 43.3314 8.28021 44.2812 7.78027C45.2512 7.26029 46.3413 7 47.5312 7ZM117.839 7.02051C119.019 7.02051 120.069 7.29008 120.959 7.83008C121.859 8.34008 122.579 9.08053 123.079 10.0205C123.589 10.9604 123.839 12.0705 123.839 13.3203H123.818V14.3398H114.349C114.399 15.3798 114.749 16.2206 115.409 16.8506C116.099 17.4703 116.969 17.79 117.979 17.79C118.929 17.79 119.649 17.5704 120.119 17.1504C120.619 16.7304 120.999 16.2299 121.259 15.6699L121.279 15.6201L121.329 15.6406L123.499 16.7598L123.479 16.7998C123.249 17.2697 122.899 17.7701 122.449 18.29C122.019 18.81 121.429 19.2506 120.709 19.6006C119.989 19.9506 119.058 20.1299 117.938 20.1299C116.689 20.1298 115.579 19.8705 114.639 19.3506C113.699 18.8206 112.959 18.0603 112.419 17.1104C111.899 16.1404 111.639 15.0102 111.639 13.7402V13.4404C111.639 12.1604 111.899 11.0203 112.419 10.0703C112.939 9.10031 113.669 8.35008 114.589 7.83008C115.529 7.29011 116.659 7.02051 117.839 7.02051ZM17.0615 2.2002V4.75H8.96094V9.7002H16.4111V12.25H8.96094V19.7998H6.16113V2.2002H17.0615ZM26.251 9.75H24.6309C23.811 9.75005 23.1313 9.98048 22.6113 10.4404C22.0914 10.8804 21.8311 11.5701 21.8311 12.5V19.7998H19.1611V7.37988H21.7812V8.83008H22.1016C22.3016 8.3202 22.6316 7.93992 23.0615 7.70996C23.5115 7.46011 24.0716 7.33008 24.7314 7.33008H26.251V9.75ZM82.8311 19.7998H80.1611V2.2002H82.8311V19.7998ZM109.818 10.6201L102.519 17.2705V17.5303H110.019V19.7998H99.6387V16.5801L99.6592 16.5605L106.919 9.93066V9.65039H99.8887V7.37012H109.818V10.6201ZM60.2412 7.37012H63.9111V9.64062H60.2412V16.8203C60.2413 17.2902 60.4516 17.5205 60.8916 17.5205H63.5107V19.79H60.0615C59.3015 19.79 58.6807 19.5606 58.2207 19.1006C57.7807 18.6406 57.5615 18.0198 57.5615 17.2598V9.64062H54.1611V7.37012H57.5615V3.2998H60.2412V7.37012ZM32.0615 14.4502C31.3915 14.4502 30.8514 14.6006 30.4414 14.8906C30.0414 15.1606 29.8408 15.5702 29.8408 16.1201C29.8408 16.6701 30.0507 17.1107 30.4707 17.4307C30.9006 17.7506 31.4909 17.9199 32.2207 17.9199C33.2407 17.9199 34.0714 17.6305 34.6914 17.0605C35.3114 16.4806 35.6211 15.6603 35.6211 14.6504V14.4502H32.0615ZM70.0508 14.4502C69.3809 14.4502 68.8406 14.6007 68.4307 14.8906C68.031 15.1606 67.8311 15.5704 67.8311 16.1201C67.8311 16.6701 68.0409 17.1107 68.4609 17.4307C68.8909 17.7506 69.4811 17.9199 70.2109 17.9199C71.2307 17.9199 72.0607 17.6303 72.6807 17.0605C73.3006 16.4806 73.6113 15.6603 73.6113 14.6504V14.4502H70.0508ZM117.809 9.40039C116.859 9.40044 116.079 9.67047 115.469 10.1904C114.899 10.6904 114.538 11.3904 114.398 12.2803H121.108C121.028 11.3903 120.709 10.6904 120.129 10.1904C119.539 9.67043 118.759 9.40039 117.809 9.40039Z" fill="black"/>
</svg>
