<svg width="105" height="55" viewBox="0 0 105 55" fill="none" xmlns="http://www.w3.org/2000/svg">
<path d="M67.4976 3.25V9.24804H37.4976V3.25H67.4976Z" fill="white"/>
<path d="M67.4976 20.25V26.248H37.4976V20.25H67.4976Z" fill="white"/>
<path d="M52.5025 14.25V17.75H37.4976V14.25H52.5025Z" fill="white"/>
<path d="M67.5025 11.25V14.75H52.4976V11.25H67.5025Z" fill="white"/>
<path d="M70.0337 44.1074C70.0337 44.8973 70.2363 45.4921 70.6274 45.8682C71.0186 46.2367 71.5754 46.4248 72.2749 46.4248C73.0497 46.4248 73.6816 46.1684 74.1479 45.6494C74.6293 45.1304 74.8706 44.3632 74.8706 43.3779V38.6387H76.8784V49.8467C76.8784 50.4259 76.7058 50.8854 76.3599 51.2314C76.0289 51.5775 75.5696 51.75 74.9829 51.75H69.1909V49.9824H74.396C74.727 49.9824 74.8852 49.8096 74.8853 49.4561V46.6348H74.644C74.5237 46.883 74.3509 47.1242 74.1177 47.3574C73.892 47.583 73.5761 47.7783 73.1851 47.9287C72.794 48.0791 72.2977 48.1543 71.7036 48.1543C71.0042 48.1543 70.3647 47.9965 69.8081 47.6807C69.2515 47.3647 68.8145 46.9132 68.4985 46.334C68.1827 45.7548 68.0249 45.0553 68.0249 44.2656V38.6387H70.0337V44.1074ZM28.4595 38.376C29.6706 38.376 30.6336 38.6918 31.3257 39.3086C32.0176 39.9254 32.3706 40.8135 32.3706 41.9492V45.7705H32.3638C32.3639 46.1236 32.5215 46.2967 32.8521 46.2969H33.6802V47.9893H32.1978C31.7468 47.9892 31.3783 47.8765 31.1001 47.6436C30.8143 47.4104 30.6714 47.094 30.6714 46.6953V46.6729H30.4458C30.348 46.8609 30.197 47.0787 30.0015 47.3193C29.7984 47.5751 29.4971 47.8012 29.106 47.9893C28.7149 48.1622 28.211 48.2529 27.5493 48.2529C26.8874 48.2529 26.278 48.1397 25.7515 47.9141C25.2326 47.6885 24.8115 47.3499 24.4956 46.9062C24.1873 46.4625 24.0367 45.9358 24.0366 45.2891C24.0366 44.6421 24.1947 44.1078 24.4956 43.6865C24.8115 43.2578 25.2399 42.9339 25.7739 42.7158C26.3155 42.4977 26.9329 42.3926 27.6099 42.3926H30.3931V41.8281C30.393 41.3019 30.2272 40.8735 29.9116 40.5576C29.5957 40.2342 29.0914 40.0762 28.437 40.0762C27.7827 40.0762 27.286 40.2259 26.9399 40.5342C26.6014 40.8426 26.3679 41.2493 26.2476 41.7383V41.7754L26.2104 41.7607L24.3823 41.166V41.1289C24.5328 40.6249 24.774 40.166 25.105 39.7598C25.4434 39.3387 25.8943 39.0001 26.4507 38.752C27.0073 38.5037 27.6772 38.376 28.4595 38.376ZM57.0444 38.376C58.2552 38.376 59.2177 38.6919 59.9097 39.3086C60.6017 39.9254 60.9556 40.8134 60.9556 41.9492V45.7705H60.9478C60.9479 46.1238 61.1062 46.2969 61.437 46.2969H62.2642V47.9893H60.7827C60.3314 47.9893 59.9624 47.8767 59.6841 47.6436C59.3982 47.4179 59.2554 47.094 59.2554 46.6953V46.6729H59.0298C58.932 46.8608 58.7818 47.0788 58.5864 47.3193C58.3833 47.5751 58.0821 47.8012 57.6909 47.9893C57.2999 48.1622 56.796 48.2529 56.1343 48.2529C55.4725 48.2529 54.8629 48.1396 54.3364 47.9141C53.8174 47.6884 53.3955 47.35 53.0796 46.9062C52.7712 46.4625 52.6207 45.9358 52.6206 45.2891C52.6206 44.6422 52.7788 44.1077 53.0796 43.6865C53.3955 43.2578 53.8248 42.934 54.3589 42.7158C54.8928 42.4978 55.5171 42.3926 56.1938 42.3926H58.9771V41.8281C58.977 41.3018 58.8114 40.8735 58.4956 40.5576C58.1797 40.2342 57.6679 40.0762 57.021 40.0762C56.3746 40.0762 55.8708 40.2261 55.5249 40.5342C55.1789 40.8426 54.9529 41.2493 54.8325 41.7383V41.7754L52.9673 41.166V41.1289C53.1177 40.625 53.358 40.1659 53.689 39.7598C54.0275 39.3385 54.479 39.0002 55.0356 38.752C55.5923 38.5037 56.2621 38.376 57.0444 38.376ZM39.3589 38.3604C40.254 38.3604 41.0219 38.5264 41.6538 38.8574C42.2855 39.1809 42.7973 39.6245 43.1733 40.166C43.5644 40.7076 43.8203 41.3173 43.9331 41.9717V42.0166H43.895L41.9692 42.4229V42.3848C41.909 41.9787 41.7741 41.6024 41.5786 41.2715C41.3831 40.9406 41.097 40.6702 40.7437 40.4746C40.3901 40.279 39.9232 40.1807 39.3892 40.1807C38.8553 40.1807 38.3666 40.3017 37.938 40.5498C37.5167 40.783 37.1852 41.1366 36.937 41.5879C36.6964 42.0317 36.5689 42.5882 36.5688 43.2275V43.4004C36.5688 44.0398 36.6888 44.5968 36.937 45.0557C37.1852 45.5069 37.5168 45.8606 37.938 46.0938C38.3741 46.3268 38.8553 46.4472 39.3892 46.4473C40.1865 46.4473 40.8114 46.2441 41.2251 45.8379C41.6462 45.4242 41.9091 44.8824 42.022 44.2432L42.0376 44.2207V44.1826L43.9858 44.6338V44.6719C43.8354 45.3113 43.5645 45.9135 43.1733 46.4551C42.7973 46.9966 42.2855 47.4327 41.6538 47.7637C41.0219 48.0796 40.254 48.2373 39.3589 48.2373C38.4639 48.2373 37.6441 48.042 36.9146 47.666C36.2 47.2899 35.6207 46.7331 35.1919 46.0186C34.7782 45.3039 34.5679 44.4308 34.5679 43.4229V43.1748C34.5679 42.1669 34.7782 41.3018 35.1919 40.5947C35.6131 39.8801 36.1999 39.3234 36.9146 38.9473C37.6441 38.5562 38.4639 38.3604 39.3589 38.3604ZM92.2466 38.376C93.1342 38.376 93.9238 38.5792 94.5933 38.9854C95.2703 39.369 95.8119 39.9257 96.188 40.6328C96.5715 41.3399 96.7603 42.1751 96.7603 43.1152H96.7446V43.8818H89.6216C89.6592 44.6642 89.922 45.2966 90.4185 45.7705C90.9375 46.2368 91.5924 46.4775 92.3521 46.4775C93.0664 46.4775 93.6079 46.3118 93.9614 45.9961C94.3374 45.6803 94.6233 45.3039 94.8188 44.8828L94.8345 44.8447L94.8716 44.8604L96.5044 45.7021L96.4888 45.7324C96.3158 46.0859 96.0528 46.4624 95.7144 46.8535C95.3909 47.2446 94.9472 47.5756 94.4058 47.8389C93.8642 48.1021 93.1643 48.2373 92.3218 48.2373C91.3815 48.2373 90.5464 48.0415 89.8394 47.6504C89.1324 47.2517 88.5756 46.6803 88.1694 45.9658C87.7783 45.2362 87.5825 44.386 87.5825 43.4307V43.2051C87.5825 42.2422 87.7783 41.3845 88.1694 40.6699C88.5606 39.9403 89.1102 39.3765 89.8022 38.9854C90.5093 38.5792 91.359 38.376 92.2466 38.376ZM16.439 34.75V36.668H10.3462V40.3916H15.9497V42.3096H10.3462V47.9893H8.23975V34.75H16.439ZM23.3521 40.4297H22.1333C21.5165 40.4297 21.0049 40.6022 20.6138 40.9482C20.2226 41.2792 20.0269 41.7985 20.0269 42.498V47.9893H18.019V38.6465H19.9897V39.7373H20.23C20.3804 39.3537 20.6292 39.0675 20.9526 38.8945C21.2911 38.7066 21.7122 38.6094 22.2085 38.6094H23.3521V40.4297ZM65.9126 47.9893H63.9048V34.75H65.9126V47.9893ZM86.2134 41.084L80.7222 46.0859V46.2812H86.3638V47.9893H78.5562V45.5674L78.5708 45.5518L84.0327 40.5645V40.3545H78.7437V38.6387H86.2134V41.084ZM48.9204 38.6387H51.6812V40.3467H48.9204V45.7471C48.9204 46.1005 49.0779 46.2743 49.4087 46.2744H51.3794V47.9814H48.7847C48.2132 47.9814 47.7469 47.8087 47.4009 47.4629C47.0699 47.1169 46.9038 46.6498 46.9038 46.0781V40.3467H44.3462V38.6387H46.9038V35.5771H48.9204V38.6387ZM27.7222 43.9648C27.2182 43.9649 26.8118 44.0778 26.5034 44.2959C26.2028 44.499 26.0523 44.8072 26.0522 45.2207C26.0522 45.6342 26.2102 45.9654 26.5259 46.2061C26.8493 46.4467 27.2933 46.5751 27.8423 46.5752C28.6096 46.5752 29.2343 46.3565 29.7007 45.9277C30.1669 45.4915 30.3999 44.8749 30.3999 44.1152V43.9648H27.7222ZM56.2993 43.9648C55.7953 43.9648 55.389 44.0778 55.0806 44.2959C54.7799 44.499 54.6295 44.8072 54.6294 45.2207C54.6294 45.6343 54.7873 45.9654 55.103 46.2061C55.4264 46.4467 55.8704 46.5752 56.4194 46.5752C57.1867 46.5752 57.8115 46.3565 58.2778 45.9277C58.744 45.4915 58.977 44.8748 58.9771 44.1152V43.9648H56.2993ZM92.2241 40.166C91.5095 40.166 90.9222 40.3696 90.4634 40.7607C90.0349 41.1368 89.764 41.663 89.6587 42.332H94.7065C94.6463 41.6629 94.4053 41.1368 93.9692 40.7607C93.5255 40.3696 92.9387 40.166 92.2241 40.166Z" fill="white"/>
</svg>
